<?xml version="1.0" encoding="UTF-8"?><svg id="Layer_2" xmlns="http://www.w3.org/2000/svg" viewBox="0 0 538.35 199.37"><defs><style>.cls-1,.cls-2{fill:#c4122f;}.cls-1,.cls-3{fill-rule:evenodd;}.cls-4{fill:#6d6e71;}.cls-3{fill:#ffcd05;}</style></defs><g id="Layer_1-2"><path class="cls-4" d="M22.53,145.05c8.14-9.21,16.19-18.28,24.21-27.37,8.34-9.46,16.57-19.01,25.02-28.36,2.46-2.72,3.19-4.64-.1-7.25-2.69-2.13-4.02-5.25-4.16-8.77-.28-7.05,4.33-10.58,10.97-8.27,2.18.76,4.37,1.65,6.32,2.85,12.65,7.81,22.99,17.98,30.61,30.78,2.13,3.58,1.36,7.26-.7,10.71-2.27,3.82-5.28,7.05-9.11,9.16-13.28,7.31-27.68,10.46-43.21,11.15.86-2.19,2.5-2.54,3.84-3.17,8.65-4.09,16.93-8.86,25.17-13.71,1.37-.81,2.76-1.63,3.97-2.66,1.95-1.67,4.63-3.32,3.83-6.27-.8-2.93-3.71-4.31-6.25-5.69-1.76-.96-2.61.81-3.59,1.65-19.54,16.77-42.02,29.29-63.14,43.77-.99.68-1.91,1.84-3.67,1.42Z"/><path class="cls-1" d="M270.86,193.67c-106.97,0-196.82-25.61-221.63-60.18-4.36,2.81-8.72,5.61-13.06,8.44l3.41,3.6c30.72,31.35,115.9,53.84,216.29,53.84,70.62,0,133.74-11.19,175.54-28.71-41.17,14.25-97.96,23.01-160.56,23.01Z"/><path class="cls-2" d="M208.58,59.4h-17.31c-12.77,0-16.89,3.17-21.75,17-3.38,9.5-5.59,20.06-5.59,26.18,0,4.96,1.27,8.44,3.8,10.87,2.64,2.32,5.38,3.27,17.84,3.27,9.82-.11,13.83.84,14.88-4.43l2.32-8.87h-1.27c-1.69,2.85-3.38,3.69-7.81,3.69h-8.23c-3.38,0-4.22-.21-5.49-.74-1.9-1.06-2.85-2.96-2.85-5.49,0-1.58.32-4.75.95-8.02,1.48-7.39,2.96-12.67,5.07-17.73,2.32-5.49,4.43-6.86,11.29-6.86h7.18c4.01,0,4.86-.42,5.59-3.48l1.37-5.38ZM221.67,106.48l3.17-13.09c.74-3.17,1.9-4.01,5.17-4.01h12.67c2.32,0,3.17-.63,3.69-2.64l1.48-6.44h-19.85l2.96-12.46h16.99c3.38,0,4.43-.63,5.07-2.96l1.37-5.49h-36.52l-.32,1.16c1.16.32,1.69.95,1.69,2.01,0,.53-.21,1.37-.42,2.53l-11.4,47.5c-.21.63-.42,1.37-.42,1.79,0,1.27.84,1.79,2.85,1.79h28.4c3.8,0,4.54-.63,5.38-4.33l1.9-8.02h-1.06c-1.48,2.32-2.32,2.64-6.76,2.64h-16.04ZM297.68,106.48h-2.11c-2.01,0-2.53-.42-3.27-2.22l-4.96-13.83c5.7-.74,8.66-2.32,11.29-5.91,2.85-3.91,4.43-9.29,4.43-14.57,0-3.91-.95-6.54-3.06-8.23-2.11-1.79-4.43-2.32-9.5-2.32h-26.92l-.21,1.16c1.06.32,1.58.95,1.58,2.01,0,.53-.11,1.37-.42,2.53l-11.4,47.5c-.11.74-.21,1.37-.21,1.79,0,1.27.74,1.79,2.74,1.79h11.72l.32-1.16c-1.06-.32-1.58-1.06-1.58-2.01,0-.53.11-1.48.42-2.53l4.75-20.06h4.43l6.33,22.27c.74,2.64,1.69,3.48,4.33,3.48h5.49c2.85,0,3.69-.74,4.33-3.59l1.48-6.12ZM273.29,82.09l3.48-14.25h7.18c4.64,0,6.23,1.16,6.23,4.43,0,3.69-1.58,7.18-3.8,8.66-1.37.84-3.17,1.16-6.23,1.16h-6.86ZM335.04,67.84h10.13c3.17,0,4.22-.63,4.86-3.27l1.79-7.6h-1.06c-1.16,2.01-2.22,2.43-5.81,2.43h-30.51c-3.48,0-4.12,0-4.75,2.96l-2.01,7.92h1.16c1.06-1.9,1.9-2.43,4.22-2.43h9.18l-10.77,44.76c-.11.84-.21,1.37-.21,1.69,0,1.37.74,1.9,2.74,1.9h11.72l.32-1.16c-1.06-.32-1.58-1.06-1.58-2.01,0-.53.11-1.48.42-2.53l10.13-42.65ZM361.12,116.19l.32-1.16c-1.06-.32-1.58-1.06-1.58-2.01,0-.53.21-1.48.42-2.53l11.4-47.61c.21-.63.32-1.27.32-1.69,0-1.27-.84-1.79-2.74-1.79h-11.82l-.32,1.16c1.16.32,1.69.95,1.69,2.01,0,.53-.21,1.37-.42,2.53l-11.4,47.5c-.21.63-.42,1.37-.42,1.79,0,1.27.84,1.79,2.85,1.79h11.72ZM392.68,80.3l2.96-12.46h17.21c3.48,0,4.33-.42,4.96-3.06l1.27-5.38h-36.52l-.32,1.16c1.16.32,1.58.95,1.58,2.01,0,.53-.11,1.37-.42,2.53l-11.4,47.5c-.11.63-.21,1.37-.21,1.79,0,1.27.74,1.79,2.74,1.79h11.72l.32-1.16c-1.06-.32-1.58-1.06-1.58-2.01,0-.53.21-1.48.42-2.53l4.12-17.21c.63-2.96,1.9-3.91,4.96-3.91h12.67c2.53,0,3.27-.42,3.8-2.43l1.58-6.65h-19.85ZM429.94,116.19l.42-1.16c-1.16-.32-1.69-1.06-1.69-2.01,0-.53.21-1.48.42-2.53l11.4-47.61c.21-.63.32-1.27.32-1.69,0-1.27-.74-1.79-2.74-1.79h-11.82l-.21,1.16c1.06.32,1.58.95,1.58,2.01,0,.53-.21,1.37-.42,2.53l-11.4,47.5c-.21.63-.32,1.37-.32,1.79,0,1.27.84,1.79,2.74,1.79h11.72ZM455.17,106.48l3.17-13.09c.74-3.17,1.9-4.01,5.17-4.01h12.67c2.32,0,3.17-.63,3.69-2.64l1.48-6.44h-19.85l2.96-12.46h16.99c3.38,0,4.43-.63,5.07-2.96l1.37-5.49h-36.52l-.32,1.16c1.16.32,1.69.95,1.69,2.01,0,.53-.21,1.37-.42,2.53l-11.4,47.5c-.21.63-.42,1.37-.42,1.79,0,1.27.84,1.79,2.85,1.79h28.4c3.8,0,4.54-.63,5.38-4.33l2.01-8.02h-1.16c-1.48,2.32-2.32,2.64-6.76,2.64h-16.04ZM497.08,59.4l-.21,1.16c1.16.32,1.58.95,1.58,2.01,0,.53-.11,1.37-.42,2.53l-11.4,47.5c-.11.84-.21,1.37-.21,1.69,0,1.37.74,1.9,2.74,1.9h21.01c11.72,0,16.26-2.53,20.8-11.4,3.91-7.71,7.39-22.48,7.39-31.67,0-4.96-1.27-8.66-4.01-11.08-2.11-1.9-4.54-2.64-9.08-2.64h-28.18ZM500.98,106.48l9.18-38.63h8.87c4.75,0,6.65,1.79,6.65,6.12,0,6.23-3.48,20.69-6.33,26.39-2.43,4.75-5.07,6.12-11.93,6.12h-6.44Z"/><path class="cls-3" d="M326.37,23.64c-79.93-5.54-173.84-1.24-247.52,24.36C30.19,64.99,0,88.43,0,114.29c0,12.98,7.6,25.44,21.43,36.63,13.83,11.29,33.78,21.43,58.48,29.87-19.42-8.13-35.05-17.31-45.71-27.45-10.66-10.13-16.47-21.01-16.47-32.41,0-25.86,30.08-49.3,78.75-66.19,69.37-24.12,154.48-32.01,229.89-30.51v-.61Z"/><path class="cls-4" d="M166.57,159.58h-.84l-1.58,6.65c-.11.32-.21.74-.21.95,0,1.06.63,1.58,2.01,1.58h14.57c5.49,0,8.97-2.53,10.77-7.92.84-2.53,1.69-6.65,1.69-8.55,0-3.06-1.48-4.96-4.64-6.12l-5.81-2.01c-2.53-.95-3.38-1.69-3.38-3.17,0-1.16.63-3.17,1.27-4.12.84-1.16,1.9-1.48,4.54-1.48h6.54c2.11,0,2.74-.42,3.17-2.53l.84-3.38h-12.46c-4.75,0-7.39.95-9.29,3.27-1.79,2.22-3.8,8.34-3.8,11.82,0,1.27.32,2.43.95,3.48.84,1.16,1.69,1.79,4.01,2.53l5.38,1.9c2.53.95,3.06,1.58,3.06,3.38,0,1.06-.32,2.64-.84,3.69-.95,1.79-2.43,2.53-5.38,2.53h-6.54c-3.17,0-3.91-.53-4.01-2.53h0ZM239.41,131.6c0-.42.11-.74.11-.95,0-.74-.63-1.16-1.9-1.16h-8.13l-.21.84c.84.21,1.16.63,1.16,1.27,0,.42-.11.95-.32,1.79l-7.92,32.93c-.11.53-.11.84-.11,1.16,0,.84.53,1.27,1.79,1.27h17.21c2.22,0,2.96-.53,3.48-2.85l1.37-5.59h-.95c-.84,1.48-1.27,1.79-3.06,1.79h-9.82l7.28-30.51ZM283.95,168.76l.21-.84c-.74-.21-1.06-.63-1.06-1.37,0-.32.11-1.06.21-1.79l7.92-32.83c.11-.42.21-.95.21-1.16,0-.95-.53-1.27-1.9-1.27h-8.23l-.11.84c.74.21,1.06.63,1.06,1.27,0,.42-.11.95-.21,1.79l-7.92,32.93c-.11.42-.21.95-.21,1.16,0,.84.53,1.27,1.9,1.27h8.13ZM324.28,129.49l-.11.84c.74.21,1.06.63,1.06,1.27,0,.42-.11.95-.32,1.79l-7.81,32.93c-.11.53-.21.84-.21,1.06,0,.95.53,1.37,1.9,1.37h14.57c8.02,0,11.19-1.79,14.36-7.92,2.74-5.28,5.17-15.52,5.17-21.85,0-3.48-.95-6.02-2.85-7.71-1.48-1.27-3.17-1.79-6.23-1.79h-19.53ZM326.92,162.11l6.44-26.71h6.12c3.27,0,4.64,1.16,4.64,4.22,0,4.22-2.43,14.25-4.43,18.16-1.69,3.27-3.59,4.33-8.23,4.33h-4.54ZM389.83,162.11l2.11-9.08c.53-2.22,1.37-2.74,3.59-2.74h8.76c1.58,0,2.22-.53,2.53-1.9l1.06-4.43h-13.72l2.01-8.55h11.82c2.32,0,3.06-.53,3.48-2.11l.95-3.8h-25.23l-.21.84c.74.21,1.16.63,1.16,1.27,0,.42-.21.95-.32,1.79l-7.92,32.93c-.11.42-.21.95-.21,1.16,0,.84.53,1.27,1.9,1.27h19.63c2.64,0,3.17-.42,3.69-2.96l1.37-5.59h-.74c-.95,1.58-1.58,1.9-4.75,1.9h-10.98ZM467.94,162.11h-1.48c-1.37,0-1.79-.42-2.22-1.58l-3.48-9.61c3.91-.53,6.02-1.58,7.81-4.12,2.01-2.64,3.17-6.33,3.17-10.03,0-2.74-.74-4.54-2.22-5.7-1.37-1.16-3.06-1.58-6.54-1.58h-18.58l-.21.84c.84.21,1.16.63,1.16,1.27,0,.42-.11.95-.32,1.79l-7.92,32.93c-.11.42-.11.84-.11,1.16,0,.84.53,1.27,1.9,1.27h8.02l.32-.84c-.84-.21-1.16-.63-1.16-1.37,0-.32.11-1.06.32-1.79l3.27-13.83h3.06l4.33,15.41c.53,1.9,1.16,2.43,3.06,2.43h3.8c1.9,0,2.53-.53,2.96-2.43l1.06-4.22ZM451.05,145.22l2.43-9.82h4.96c3.27,0,4.33.74,4.33,2.96,0,2.64-1.06,4.96-2.64,6.02-.95.53-2.22.84-4.33.84h-4.75ZM500.03,159.58h-.95l-1.58,6.65c-.11.32-.11.74-.11.95,0,1.06.53,1.58,2.01,1.58h14.46c5.59,0,8.97-2.53,10.77-7.92.95-2.53,1.69-6.65,1.69-8.55,0-3.06-1.48-4.96-4.64-6.12l-5.7-2.01c-2.64-.95-3.48-1.69-3.48-3.17,0-1.16.63-3.17,1.27-4.12.84-1.16,2.01-1.48,4.54-1.48h6.54c2.11,0,2.74-.42,3.27-2.53l.74-3.38h-12.46c-4.64,0-7.28.95-9.18,3.27-1.9,2.22-3.91,8.34-3.91,11.82,0,1.27.32,2.43.95,3.48.84,1.16,1.69,1.79,4.01,2.53l5.49,1.9c2.43.95,3.06,1.58,3.06,3.38,0,1.06-.42,2.64-.95,3.69-.95,1.79-2.43,2.53-5.38,2.53h-6.54c-3.17,0-3.91-.53-3.91-2.53h0Z"/><polygon class="cls-3" points="456.65 31.74 444.51 40.61 449.15 54.86 437.01 45.99 424.87 54.86 429.52 40.61 417.38 31.74 432.37 31.85 437.01 17.49 441.66 31.85 456.65 31.74"/><polygon class="cls-3" points="420.74 25.85 410.52 33.32 414.43 45.32 404.21 37.86 393.98 45.32 397.89 33.32 387.67 25.85 400.29 25.94 404.21 13.85 408.12 25.94 420.74 25.85"/><polygon class="cls-3" points="386.8 22.2 378.49 28.27 381.67 38.02 373.36 31.96 365.05 38.02 368.23 28.27 359.92 22.2 370.18 22.27 373.36 12.45 376.54 22.27 386.8 22.2"/><polygon class="cls-3" points="356.94 21.23 350.54 25.9 352.99 33.4 346.6 28.73 340.21 33.4 342.65 25.9 336.26 21.23 344.15 21.28 346.6 13.72 349.04 21.28 356.94 21.23"/><polygon class="cls-3" points="333.27 23.37 328.79 26.64 330.5 31.9 326.03 28.63 321.55 31.9 323.26 26.64 318.79 23.37 324.31 23.41 326.03 18.12 327.74 23.41 333.27 23.37"/><path class="cls-2" d="M62.43,54.82c-1.72-12.64-2.69-24.09,2.63-34.84,6.71-13.57,17.17-16.71,30.58-9.67,6.44,3.38,11.81,7.87,14.81,14.71,1.62,3.69.86,9.08-1.46,10.92-2.31,1.84-7.37.85-10.7-2.16-3.33-3.01-6.47-6.24-9.94-9.07-6.22-5.08-11.12-4.21-15.62,2.4-4.66,6.84-6.64,14.72-8.86,22.51-.38,1.34-.74,2.7-1.43,5.2Z"/><path class="cls-2" d="M174.69,37.31c1.19,17.48-9.12,35.59-22.74,41.67-5.6,2.5-10.65,1.89-15.32-2.09-6.3-5.37-10.09-12.19-11.73-20.25-.69-3.39-.11-6.65,1.55-9.66,2.46-4.48,6.06-4.76,9.25-.71,1.9,2.42,2.83,5.33,3.86,8.2.82,2.31,1.55,4.7,2.76,6.81,3.28,5.71,7.48,6.44,12.85,2.71,9.21-6.39,15.38-15.04,19.53-26.68Z"/><path class="cls-2" d="M148.44,15.01c-.08,8.19-6.57,14.53-14.72,14.38-7.25-.13-13.39-7.05-13.24-14.93C120.62,6.7,127.04-.01,134.3,0c7.83.01,14.22,6.8,14.15,15.01Z"/></g></svg>